<?xml version="1.0" standalone="no"?>
<!DOCTYPE svg PUBLIC "-//W3C//DTD SVG 1.1//EN" "http://www.w3.org/Graphics/SVG/1.1/DTD/svg11.dtd" >
<svg xmlns="http://www.w3.org/2000/svg" xmlns:xlink="http://www.w3.org/1999/xlink" version="1.1">
<metadata></metadata>
<defs>
<font id="fmedium" horiz-adv-x="1264" >
<font-face units-per-em="2048" ascent="1638" descent="-410" />
<missing-glyph horiz-adv-x="632" />
<glyph horiz-adv-x="0" />
<glyph unicode="&#xd;" horiz-adv-x="682" />
<glyph horiz-adv-x="0" />
<glyph unicode="&#x9;" horiz-adv-x="632" />
<glyph horiz-adv-x="0" />
<glyph unicode=" "  horiz-adv-x="632" />
<glyph unicode="&#x09;" horiz-adv-x="632" />
<glyph unicode="&#xa0;" horiz-adv-x="632" />
<glyph unicode="!" horiz-adv-x="679" d="M201 112q0 -60 40 -100t99 -40q58 0 98.5 40.5t40.5 98.5q0 57 -41 98t-98 41t-98 -41t-41 -97zM227 344h226v1200h-226v-1200z" />
<glyph unicode="&#x22;" horiz-adv-x="840" d="M109 1544l43 -621h170l43 621h-256zM475 1544l43 -621h170l43 621h-256z" />
<glyph unicode="#" d="M42 475h228l-57 -459l178 -23l60 478h297l-57 -455l176 -23l59 478h244v176h-222l36 287h243v176h-224l53 425l-175 23l-56 -448h-295l53 425l-175 23l-55 -448h-253v-176h231l-36 -287h-253v-172zM473 647l36 287h294l-34 -287h-296z" />
<glyph unicode="$" d="M117 431q49 -215 152 -318t299 -135v-201h175v207q169 45 270.5 174.5t101.5 299.5q0 173 -113 295q-77 87 -319 197q-139 62 -186 108.5t-47 118.5q0 78 58 130t146 52q142 0 230 -160l195 109q-69 123 -144 181.5t-192 77.5v196h-175v-196q-163 -42 -252 -145 q-90 -106 -90 -247q0 -152 97 -261q61 -73 255 -160q94 -43 155 -79q40 -24 59.5 -38.5t45 -41.5t36.5 -62.5t11 -82.5q0 -110 -73 -181t-184 -71q-113 0 -181 62q-65 65 -110 217z" />
<glyph unicode="%" horiz-adv-x="1876" d="M77 1201q0 -151 108.5 -260t260.5 -109q155 0 265 107t110 257q0 149 -110 256.5t-262 107.5q-148 0 -260 -107.5t-112 -251.5zM251 1198q0 79 58.5 137t139.5 58q82 0 140 -58t58 -139q0 -82 -58 -140t-139 -58q-83 0 -141 58t-58 142zM441 41l110 -66l884 1534l-109 62 zM1054 355q0 -153 108.5 -261t260.5 -108q156 0 266 106t110 257q0 149 -110 256.5t-263 107.5q-148 0 -260 -107t-112 -251zM1229 351q0 80 58 138t139 58q83 0 140.5 -58t57.5 -140t-57.5 -140t-139.5 -58q-83 0 -140.5 58t-57.5 142z" />
<glyph unicode="&#x26;" horiz-adv-x="1497" d="M124 427q0 -194 140 -326q143 -131 348 -131q230 0 441 219l154 -189h290l-286 353q136 148 182 215l-152 156q-70 -91 -162 -191l-9 -10l-278 336q147 114 203.5 195t56.5 180q0 145 -104 240t-263 95q-164 0 -267 -98t-103 -254q0 -157 153 -321q-3 -2 -7.5 -5.5 t-6.5 -5.5t-4 -3l-3 -2l-101 -69q-222 -153 -222 -384zM348 433q0 67 51 127q53 60 195 159l13 9l305 -371q-176 -177 -311 -177q-96 0 -176 77q-77 80 -77 176zM533 1242q0 57 43 95.5t106 38.5q69 0 110 -38t41 -99q0 -53 -30 -91q-27 -36 -127 -111l-19 -14q-9 11 -12 15 l-58 70q-54 66 -54 134z" />
<glyph unicode="'" horiz-adv-x="474" d="M109 1544l43 -621h170l43 621h-256z" />
<glyph unicode="(" horiz-adv-x="750" d="M185 639q0 -608 218 -1067l208 80q-110 261 -153 481q-44 226 -44 506q0 279 44 505q44 221 153 482l-208 80q-218 -459 -218 -1067z" />
<glyph unicode=")" horiz-adv-x="750" d="M139 -348l208 -80q218 459 218 1067t-218 1067l-208 -80q109 -262 153.5 -483t44.5 -504q0 -287 -44 -507t-154 -480z" />
<glyph unicode="*" d="M232 1326l262 -69l-172 -209l163 -118l146 228l147 -228l162 118l-171 210l262 68l-62 191l-253 -98l16 270h-201l15 -270l-252 98z" />
<glyph unicode="+" d="M99 710h440v-432h185v432h440v186h-440v432h-185v-432h-440v-186z" />
<glyph unicode="," horiz-adv-x="632" d="M44 -297l152 -63l285 571l-200 78z" />
<glyph unicode="-" horiz-adv-x="446" d="M0 397h446v196h-446v-196z" />
<glyph unicode="." horiz-adv-x="632" d="M177 112q0 -60 40 -100t99 -40q58 0 98.5 40.5t40.5 98.5q0 57 -41 98t-98 41t-98 -41t-41 -97z" />
<glyph unicode="/" horiz-adv-x="1061" d="M-14 -339l184 -83l884 2046l-186 82z" />
<glyph unicode="0" d="M87 782q0 -151 29 -282t79.5 -226t119.5 -163t149.5 -102t168.5 -34q110 0 208 54.5t173 154t119 252t44 336.5t-44 337t-119 252.5t-173.5 154t-208.5 54.5t-208.5 -55t-173.5 -154t-119 -249t-44 -330zM316 781q0 162 41 294.5t113.5 208t161.5 75.5q137 0 227 -166.5 t90 -419.5t-90 -419.5t-227 -166.5q-91 0 -163 76.5t-112.5 212t-40.5 305.5z" />
<glyph unicode="1" d="M288 1326h267v-1326h233v1544h-372z" />
<glyph unicode="2" d="M51 0h1037v219h-575l240 284q99 117 166 205q54 71 84 118.5t56 123t26 154.5q0 198 -143.5 332t-354.5 134q-437 0 -493 -488h232q34 277 268 277q112 0 188 -73t76 -181q0 -75 -57 -169q-48 -83 -214 -287z" />
<glyph unicode="3" d="M87 418q15 -152 71 -238q135 -205 414 -205q219 0 359 132t140 340q0 255 -192 367q168 118 168 330q0 188 -128 307.5t-331 119.5q-202 0 -313.5 -101.5t-147.5 -319.5h232q26 115 76 162q53 47 150 47q104 0 169.5 -62.5t65.5 -161.5q0 -124 -68 -171.5t-222 -47.5 v-199q72 0 125.5 -11.5t97.5 -40t66.5 -80.5t22.5 -128q0 -118 -74 -194t-187 -76q-112 0 -181.5 59.5t-87.5 171.5h-225z" />
<glyph unicode="4" d="M19 219h758v-219h233v219h164v212h-164v1228zM421 431l356 517v-517h-356z" />
<glyph unicode="5" d="M39 263q177 -288 484 -288q250 0 413.5 158.5t163.5 401.5q0 236 -144.5 387.5t-369.5 151.5q-30 0 -61 -4l76 256h476v218h-638l-243 -812h77q114 137 271 137q141 0 235 -97q94 -94 94 -242q0 -144 -95 -245q-95 -98 -235 -98q-107 0 -181 50.5t-147 174.5z" />
<glyph unicode="6" d="M113 477q0 -204 155 -353q158 -149 368 -149q104 0 199.5 41t164.5 110t110 164.5t41 199.5q0 131 -62.5 243t-168.5 177.5t-230 65.5q-20 0 -84 -8l369 502l-171 128l-540 -733q-151 -205 -151 -388zM340 478q0 121 85 206t207 85q121 0 206.5 -85.5t85.5 -208.5 q0 -117 -85.5 -202.5t-205.5 -85.5q-123 0 -208 85t-85 206z" />
<glyph unicode="7" d="M98 64l185 -117l974 1597h-1151v-218h762z" />
<glyph unicode="8" d="M147 439q0 -200 139.5 -332t353.5 -132q209 0 343 131t134 336q0 120 -53.5 216t-146.5 146q169 126 169 325q0 190 -128 315.5t-320 125.5q-193 0 -322.5 -126t-129.5 -314q0 -207 170 -327q-209 -104 -209 -364zM376 447q0 104 75.5 179t180.5 75q106 0 181 -75 t75 -182q0 -106 -75 -181.5t-181 -75.5q-107 0 -181.5 76t-74.5 184zM405 1131q0 93 68 160.5t163 67.5t163 -68t68 -163t-68 -163t-163 -68q-96 0 -163.5 67.5t-67.5 166.5z" />
<glyph unicode="9" d="M113 1054q0 -199 136.5 -342t323.5 -143q21 0 85 8l-369 -503l171 -127l539 732q152 209 152 389q0 133 -71.5 249t-192.5 184.5t-259 68.5q-104 0 -199.5 -41t-164.5 -110t-110 -164.5t-41 -200.5zM340 1071q0 117 85.5 202.5t205.5 85.5q122 0 207.5 -85.5t85.5 -206.5 t-85.5 -206.5t-206.5 -85.5t-206.5 85.5t-85.5 210.5z" />
<glyph unicode=":" horiz-adv-x="632" d="M177 112q0 -60 40 -100t99 -40q58 0 98.5 40.5t40.5 98.5q0 57 -41 98t-98 41t-98 -41t-41 -97zM177 864q0 -60 40.5 -100.5t98.5 -40.5t98.5 40.5t40.5 98.5q0 57 -41 98t-98 41t-98 -41t-41 -96z" />
<glyph unicode=";" horiz-adv-x="632" d="M44 -297l152 -63l285 571l-200 78zM226 863q0 -59 40.5 -99.5t98.5 -40.5t98.5 40.5t40.5 98.5q0 57 -41 98t-98 41t-98 -41t-41 -97z" />
<glyph unicode="&#x3c;" d="M130 686l1004 -490v228l-758 359l758 359v230l-1004 -489v-197z" />
<glyph unicode="=" d="M99 556h1065v170h-1065v-170zM99 880h1065v170h-1065v-170z" />
<glyph unicode="&#x3e;" d="M130 195l1003 489v197l-1003 490v-228l757 -360l-757 -358v-230z" />
<glyph unicode="?" horiz-adv-x="1002" d="M124 1198q0 -24 5 -82h233q-12 56 -12 86q0 69 41 109t110 40t110.5 -40.5t41.5 -109.5t-40 -102q-39 -33 -186 -87q-148 -53 -209.5 -123.5t-61.5 -186.5q0 -147 97.5 -247t241.5 -100q160 0 255 104.5t95 261.5h-226q-10 -154 -120 -154q-49 0 -83 34q-35 35 -35 83 q0 86 130 126q200 62 284.5 145t84.5 240q0 159 -109 265t-272 106q-162 0 -268.5 -105t-106.5 -263zM364 112q0 -59 40.5 -99.5t99.5 -40.5q57 0 97.5 40.5t40.5 98.5q0 57 -41 98t-98 41t-98 -41t-41 -97z" />
<glyph unicode="@" horiz-adv-x="1803" d="M108 772q0 -185 86 -366q46 -90 111.5 -164.5t157.5 -136.5t219 -96.5t278 -34.5q283 0 544 126l12 6l-52 144l-15 -8q-258 -119 -490 -119q-120 0 -221.5 28t-174.5 78t-125 110t-88 133q-68 150 -68 302q0 183 86.5 334t237 237.5t333.5 86.5q266 0 437 -159 q172 -157 172 -403q0 -155 -70.5 -277t-157.5 -122q-62 0 -62 75q0 50 7 105l63 525h-151l-14 -111q-103 130 -271 130q-183 0 -304 -130q-121 -127 -121 -324q0 -183 109 -301.5t274 -118.5q151 0 274 126q46 -121 174 -121q105 0 196.5 75t146 203.5t54.5 277.5 q0 145 -58 273t-158.5 219t-241.5 144t-300 53q-173 0 -326.5 -61.5t-264 -168t-174.5 -254.5t-64 -315zM673 732q0 120 64.5 197.5t165.5 77.5q93 0 157 -62t64 -155q0 -118 -80 -207t-185 -89q-82 0 -134 67t-52 171z" />
<glyph unicode="A" horiz-adv-x="1517" d="M8 0h251l172 375h661l162 -375h255l-737 1641zM528 594l240 525l229 -525h-469z" />
<glyph unicode="B" horiz-adv-x="1211" d="M185 0h353q156 0 263 29q52 16 102 48.5t96 82t74.5 123t28.5 159.5q0 138 -71.5 242.5t-194.5 146.5q127 115 127 281q0 91 -38.5 179.5t-103.5 147.5q-64 57 -156.5 81t-247.5 24h-232v-1544zM418 219v467h118q178 0 257 -63.5t79 -171.5q0 -107 -78.5 -169.5 t-231.5 -62.5h-144zM418 881v449h82q118 0 180 -56.5t62 -165.5q0 -227 -251 -227h-73z" />
<glyph unicode="C" horiz-adv-x="1435" d="M108 765q0 -329 233 -562q234 -231 565 -231q220 0 420 113v281q-115 -97 -208 -136q-84 -40 -209 -40q-156 0 -286 76t-205 209t-75 292q0 162 74.5 296.5t204.5 212.5t286 78q216 0 418 -169v276q-194 113 -402 113q-148 0 -279.5 -46t-228 -125.5t-167 -183t-106 -220 t-35.5 -234.5z" />
<glyph unicode="D" horiz-adv-x="1487" d="M185 0h320q237 0 363 43q138 44 262 153q249 220 249 576q0 355 -239 573q-119 108 -263 153q-134 46 -368 46h-324v-1544zM418 219v1106h105q295 0 458 -148t163 -405q0 -252 -172 -409q-85 -76 -189 -110t-260 -34h-105z" />
<glyph unicode="E" horiz-adv-x="1158" d="M185 0h852v219h-619v516h601v219h-601v371h619v219h-852v-1544z" />
<glyph unicode="F" horiz-adv-x="1041" d="M185 0h233v735h519v219h-519v371h538v219h-771v-1544z" />
<glyph unicode="G" horiz-adv-x="1725" d="M108 769q0 -162 62.5 -309.5t168 -254.5t251 -170.5t304.5 -63.5q332 0 547 242q95 108 135 232q41 135 41 308v51h-638v-219h385q-16 -162 -153 -279t-309 -117q-101 0 -201 43t-180 117.5t-129.5 184.5t-49.5 235q0 250 166 416q166 169 411 169q273 0 463 -253 l166 159q-146 167 -295 240q-159 74 -338 74q-165 0 -315 -63.5t-257.5 -171t-171 -256.5t-63.5 -314z" />
<glyph unicode="H" horiz-adv-x="1502" d="M185 0h233v721h666v-721h233v1544h-233v-604h-666v604h-233v-1544z" />
<glyph unicode="I" horiz-adv-x="604" d="M185 0h233v1544h-233v-1544z" />
<glyph unicode="J" horiz-adv-x="840" d="M-38 48q127 -76 273 -76q193 0 310 137q59 68 85 169q25 87 25 267v999h-234v-999q0 -198 -41 -276.5t-145 -78.5q-73 0 -159 57z" />
<glyph unicode="K" horiz-adv-x="1357" d="M185 0h233v639l48 48l556 -687h312l-702 845l698 699h-311l-601 -616v616h-233v-1544z" />
<glyph unicode="L" horiz-adv-x="908" d="M185 0h687v219h-454v1325h-233v-1544z" />
<glyph unicode="M" horiz-adv-x="1969" d="M131 0h241l166 933l444 -1004l457 1003l149 -932h239l-292 1660l-549 -1200l-530 1200z" />
<glyph unicode="N" horiz-adv-x="1729" d="M185 0h233v1081l1126 -1175v1638h-233v-1073l-1126 1178v-1649z" />
<glyph unicode="O" horiz-adv-x="1830" d="M108 779q0 -121 31.5 -231.5t87 -198t131.5 -159.5t164.5 -119.5t186.5 -73t198 -25.5q166 0 317 62.5t260 169.5t173.5 254.5t64.5 311.5q0 162 -64 311t-172 256.5t-256.5 171.5t-310.5 64q-164 0 -314 -63.5t-259 -170t-173.5 -253.5t-64.5 -307zM343 776 q0 160 76 293t207.5 209t289.5 76q159 0 290 -76.5t206 -210t75 -295.5q0 -120 -45 -228t-121.5 -185.5t-184 -123t-226.5 -45.5q-149 0 -278.5 74.5t-209 210t-79.5 301.5z" />
<glyph unicode="P" horiz-adv-x="1106" d="M185 0h233v627h108q241 0 383 124t142 336q0 198 -133 328q-75 75 -174.5 102t-294.5 27h-264v-1544zM418 843v486h77q331 0 331 -239q0 -247 -321 -247h-87z" />
<glyph unicode="Q" horiz-adv-x="1830" d="M108 765q0 -139 44 -264.5t121.5 -220.5t178.5 -165t219.5 -106.5t240.5 -36.5q237 0 430 124l121 -124h293l-255 249q221 233 221 533q0 149 -46 281t-125 228.5t-182 167.5t-219.5 106.5t-234.5 35.5q-160 0 -308 -61.5t-258 -167.5t-175.5 -257.5t-65.5 -321.5z M343 763q0 126 42.5 236t117.5 188t181 122.5t228 44.5q161 0 293 -76.5t207 -210.5t75 -298q0 -227 -148 -381l-224 223h-301l363 -352q-121 -69 -273 -69q-110 0 -212.5 43t-179.5 118t-123 182.5t-46 229.5z" />
<glyph unicode="R" horiz-adv-x="1233" d="M185 0h233v632h42l441 -632h285l-478 658q154 33 248 151t94 282q0 216 -147 334.5t-445 118.5h-273v-1544zM418 835v490h83q322 0 322 -237q0 -253 -331 -253h-74z" />
<glyph unicode="S" horiz-adv-x="1194" d="M108 426q32 -216 162 -335t331 -119q213 0 355 140t142 352q0 159 -87 268.5t-275 185.5l-154 63q-168 69 -168 182q0 82 64 136.5t161 54.5q79 0 129 -32q49 -29 101 -120l189 112q-150 260 -417 260q-198 0 -331 -117.5t-133 -291.5q0 -258 317 -392l149 -62 q117 -50 169 -111q51 -61 51 -152q0 -112 -72 -185t-181 -73q-138 0 -210 100q-39 51 -56 188z" />
<glyph unicode="T" horiz-adv-x="988" d="M23 1325h355v-1325h233v1325h354v219h-942v-219z" />
<glyph unicode="U" horiz-adv-x="1513" d="M185 550q0 -161 73 -293t204 -208.5t294 -76.5t294.5 76.5t204.5 208.5t73 293v994h-233v-930q0 -424 -339 -424q-176 0 -273 133q-65 92 -65 291v930h-233v-994z" />
<glyph unicode="V" horiz-adv-x="1385" d="M8 1544l677 -1660l693 1660h-255l-433 -1070l-427 1070h-255z" />
<glyph unicode="W" horiz-adv-x="2172" d="M8 1544l656 -1643l414 1095l397 -1094l690 1642h-253l-427 -1032l-402 1107l-420 -1107l-402 1032h-253z" />
<glyph unicode="X" horiz-adv-x="1265" d="M23 0h264l352 591l342 -591h261l-467 807l445 737h-267l-310 -523l-295 523h-265l425 -737z" />
<glyph unicode="Y" horiz-adv-x="1229" d="M-7 1544l504 -877v-667h233v667l506 877h-268l-354 -617l-353 617h-268z" />
<glyph unicode="Z" horiz-adv-x="1280" d="M69 0h1124v219h-741l758 1325h-1017v-219h634z" />
<glyph unicode="[" horiz-adv-x="732" d="M201 -410h423v212h-194v1676h194v211h-423v-2099z" />
<glyph unicode="\" horiz-adv-x="1061" d="M8 1624l885 -2046l184 83l-883 2045z" />
<glyph unicode="]" horiz-adv-x="732" d="M108 -198v-212h423v2099h-423v-211h195v-1676h-195z" />
<glyph unicode="^" horiz-adv-x="1158" d="M36 812h245l298 555l298 -555h246l-392 739h-304z" />
<glyph unicode="_" horiz-adv-x="1158" d="M0 -129v-210h1158v210h-1158z" />
<glyph unicode="`" horiz-adv-x="1158" d="M197 1454l363 -330l124 76l-276 364z" />
<glyph unicode="a" horiz-adv-x="1228" d="M96 490q0 -223 131 -372q132 -146 334 -146q160 0 299 130v-102h226v974h-226v-113q-135 140 -305 140q-197 0 -328 -146t-131 -365zM326 490q0 131 77.5 219.5t193.5 88.5q123 0 200 -87.5t77 -225.5t-77 -225t-202 -87q-117 0 -193 88.5t-76 228.5z" />
<glyph unicode="b" horiz-adv-x="1228" d="M142 0h225v102q133 -130 302 -130q200 0 331.5 146.5t131.5 371.5q0 219 -131 365t-328 146q-171 0 -306 -140v828h-225v-1689zM354 487q0 138 77.5 224.5t201.5 86.5q117 0 193 -89t76 -229q0 -132 -77.5 -219.5t-194.5 -87.5q-124 0 -200 86t-76 228z" />
<glyph unicode="c" horiz-adv-x="976" d="M96 483q0 -218 152 -364.5t378 -146.5q137 0 274 71v297q-80 -97 -141 -132t-143 -35q-127 0 -208.5 88t-81.5 225q0 134 84 223t211 89q81 0 141.5 -35.5t137.5 -129.5v299q-128 69 -272 69q-224 0 -378 -150t-154 -368z" />
<glyph unicode="d" horiz-adv-x="1228" d="M96 490q0 -223 131 -372q132 -146 332 -146q168 0 301 130v-102h226v1689h-226v-828q-135 140 -306 140q-197 0 -327.5 -146t-130.5 -365zM326 490q0 131 77.5 219.5t193.5 88.5q123 0 200 -87.5t77 -225.5t-77 -225t-202 -87q-117 0 -193 88.5t-76 228.5z" />
<glyph unicode="e" horiz-adv-x="1133" d="M96 486q0 -233 132 -373.5t350 -140.5q153 0 262 67q111 68 198 216l-190 106q-70 -109 -124.5 -148.5t-137.5 -39.5q-108 0 -177 70.5t-78 190.5h699v53q0 240 -124 377t-340 137q-213 0 -342 -141q-128 -143 -128 -374zM346 618q22 83 83 132q60 48 142 48 q181 0 227 -180h-452z" />
<glyph unicode="f" horiz-adv-x="608" d="M69 764h80v-764h226v764h245v210h-245v321q0 120 21 162q21 43 81 43q47 0 120 -37l23 -12v230q-93 35 -151 35q-166 0 -243 -90t-77 -276v-376h-80v-210z" />
<glyph unicode="g" horiz-adv-x="1226" d="M96 481q0 -220 128 -364.5t326 -144.5q175 0 309 137v-136q0 -303 -247 -303q-134 0 -204 91q-29 38 -43 111h-226q20 -190 147 -297t324 -107q231 0 363 152q70 79 94 189q17 82 17 214v951h-225v-110q-122 137 -306 137q-136 0 -241.5 -71t-160.5 -188.5t-55 -260.5z M326 484q0 139 72 227t197 88q121 0 197 -86.5t76 -227.5q0 -136 -73.5 -224t-199.5 -88t-197.5 87t-71.5 224z" />
<glyph unicode="h" horiz-adv-x="1123" d="M142 0h225v471q0 180 47.5 253.5t165.5 73.5q92 0 133.5 -52.5t41.5 -169.5v-576h225v597q0 201 -90 302.5t-258 101.5q-145 0 -265 -108v796h-225v-1689z" />
<glyph unicode="i" horiz-adv-x="510" d="M108 1379q0 -62 43 -105t104 -43t103.5 43t42.5 104t-43 103.5t-104 42.5q-60 0 -103 -43t-43 -102zM142 0h225v974h-225v-974z" />
<glyph unicode="j" horiz-adv-x="510" d="M108 1379q0 -62 43 -105t104 -43t103.5 43t42.5 104t-43 103.5t-104 42.5q-60 0 -103 -43t-43 -102zM142 -530h225v1504h-225v-1504z" />
<glyph unicode="k" horiz-adv-x="1020" d="M142 0h225v375l36 36l322 -411h292l-454 565l423 409h-302l-317 -315v1030h-225v-1689z" />
<glyph unicode="l" horiz-adv-x="510" d="M142 0h225v1689h-225v-1689z" />
<glyph unicode="m" horiz-adv-x="1620" d="M142 0h225v503q0 153 43.5 224t138.5 71q150 0 150 -260v-538h226v503q0 155 42.5 225t135.5 70q81 0 115 -58.5t34 -198.5v-541h226v602q0 399 -329 399q-180 0 -287 -144q-96 144 -261 144q-73 0 -120.5 -24t-113.5 -93v90h-225v-974z" />
<glyph unicode="n" horiz-adv-x="1123" d="M142 0h226v470q0 181 46.5 255t158.5 74q103 0 142.5 -55.5t39.5 -199.5v-544h226v597q0 404 -347 404q-148 0 -266 -117v90h-226v-974z" />
<glyph unicode="o" horiz-adv-x="1231" d="M96 494q0 -147 67.5 -267t185.5 -187.5t262 -67.5q146 0 266 67t189 185t69 262q0 142 -69 260.5t-188.5 186.5t-262.5 68q-142 0 -261.5 -67.5t-188.5 -184.5t-69 -255zM326 490q0 136 80 222t209 86q131 0 210.5 -85.5t79.5 -227.5t-79 -227t-211 -85t-210.5 85.5 t-78.5 231.5z" />
<glyph unicode="p" horiz-adv-x="1228" d="M142 -530h225v639q135 -137 306 -137q198 0 328.5 145.5t130.5 364.5q0 224 -132 371q-130 148 -331 148q-169 0 -302 -133v106h-225v-1504zM354 486q0 140 77 226t201 86q118 0 194 -88.5t76 -228.5q0 -132 -77 -220t-194 -88q-123 0 -200 87.5t-77 225.5z" />
<glyph unicode="q" horiz-adv-x="1228" d="M96 482q0 -219 130.5 -364.5t327.5 -145.5q172 0 306 137v-639h226v1504h-226v-106q-133 133 -302 133q-198 0 -330 -148.5t-132 -370.5zM326 492q0 130 77.5 218t193.5 88q123 0 200 -87.5t77 -225.5q0 -139 -77.5 -225.5t-201.5 -86.5q-117 0 -193 89.5t-76 229.5z" />
<glyph unicode="r" horiz-adv-x="766" d="M142 0h225v505q0 278 184 278q61 0 125 -46l103 206q-97 58 -186 58q-67 0 -115.5 -24.5t-110.5 -89.5v87h-225v-974z" />
<glyph unicode="s" horiz-adv-x="831" d="M76 211q102 -239 347 -239q145 0 246.5 93.5t101.5 232.5q0 110 -62 175t-241 142q-130 55 -130 111q0 32 22 52.5t53 20.5q65 0 109 -90l186 99q-91 193 -278 193q-128 0 -215.5 -83.5t-87.5 -209.5q0 -93 43.5 -148t145.5 -105l69 -33q11 -5 33.5 -16t34.5 -17 q88 -52 88 -112q0 -104 -114 -104q-55 0 -86 26.5t-73 100.5z" />
<glyph unicode="t" horiz-adv-x="560" d="M53 764h96v-764h225v764h175v210h-175v357h-225v-357h-96v-210z" />
<glyph unicode="u" horiz-adv-x="1116" d="M142 410q0 -136 28 -202q28 -75 99 -137q114 -99 289 -99q176 0 290 99q69 61 97 137q29 87 29 202v564h-225v-559q0 -242 -191 -242t-191 242v559h-225v-564z" />
<glyph unicode="v" horiz-adv-x="1029" d="M11 974l502 -1041l506 1041h-253l-251 -547l-252 547h-252z" />
<glyph unicode="w" horiz-adv-x="1585" d="M11 974l509 -1047l274 627l271 -627l510 1047h-252l-252 -556l-277 645l-275 -645l-255 556h-253z" />
<glyph unicode="x" horiz-adv-x="1143" d="M11 0h275l293 364l286 -364h268l-417 527l360 447h-276l-221 -284l-217 284h-268l350 -447z" />
<glyph unicode="y" horiz-adv-x="1113" d="M11 974l438 -793l-380 -711h257l776 1504h-254l-278 -560l-298 560h-261z" />
<glyph unicode="z" horiz-adv-x="1113" d="M19 0h1025v212h-579l630 762h-942v-210h497z" />
<glyph unicode="{" horiz-adv-x="732" d="M95 550q60 -14 95 -54.5t35 -92.5v-492q0 -181 64 -260t211 -79l71 4h57v201h-28q-89 0 -116.5 36t-27.5 150v453q0 138 -140 222q83 50 111 107q29 69 29 173v402q0 112 27 146.5t117 34.5h28v201l-135 4q-141 0 -204.5 -77.5t-63.5 -248.5v-446q0 -87 -30 -131 t-100 -60v-193z" />
<glyph unicode="|" horiz-adv-x="1158" d="M463 -385h232v1929h-232v-1929z" />
<glyph unicode="}" horiz-adv-x="732" d="M105 -222v-203h58l77 -3q141 0 204.5 77.5t63.5 248.5v446q0 86 30 130t100 61v192q-60 14 -95 54.5t-35 92.5v494q0 180 -64.5 259.5t-211.5 79.5l-70 -4h-57v-201h28q88 0 116 -35.5t28 -150.5v-455q0 -137 140 -221q-83 -50 -111 -107q-29 -69 -29 -174v-400 q0 -113 -27.5 -147.5t-116.5 -33.5h-28z" />
<glyph unicode="~" horiz-adv-x="1544" d="M212 1409q59 -89 104 -89q19 0 39 26l64 89q10 15 44.5 29.5t59.5 14.5q71 0 203 -56q171 -78 261 -78q109 0 188.5 65.5t156.5 217.5q-61 85 -107 85q-19 0 -41 -28l-61 -76q-31 -40 -115 -40q-78 0 -212 64q-149 70 -253 70q-103 0 -176 -60t-139 -199z" />
<glyph unicode="&#xa1;" horiz-adv-x="679" d="M201 1079q0 -58 41 -99t98 -41q58 0 98.5 40.5t40.5 97.5q0 59 -41 100t-98 41q-58 0 -98.5 -40.5t-40.5 -98.5zM227 -354h226v1199h-226v-1199z" />
<glyph unicode="&#xa2;" d="M187 772q0 -184 109 -320q48 -63 116 -109q68 -42 172 -73v-208h171v199q113 17 229 65v312q-76 -96 -135.5 -131t-149.5 -35q-130 0 -209 82t-79 215q0 135 80.5 221t207.5 86q82 0 143 -34q66 -37 142 -123v300q-98 50 -220 65l-9 1v194h-171v-197q-397 -127 -397 -510 z" />
<glyph unicode="&#xa3;" d="M36 67l200 -101q39 83 71 109.5t88 26.5q69 0 234 -64q174 -59 256 -59q117 0 196.5 59.5t145.5 201.5l-186 112q-25 -44 -45 -72q-18 -25 -30 -38t-34 -25t-49 -12q-58 0 -178 49q-22 8 -107 38l-15 5q29 114 29 159q0 38 -26 142h234v163h-301q-5 7 -6 12 q-1 1 -2.5 3.5t-2.5 3.5q-106 190 -106 292q0 122 78 200.5t199 78.5q64 0 111 -17.5t76.5 -47t46.5 -77.5t23.5 -101t6.5 -124l229 85q0 221 -139 360q-138 141 -353 141q-140 0 -259 -64t-188 -174.5t-69 -240.5q0 -137 97 -330h-181v-163h264q35 -65 35 -134 q0 -64 -24 -143q-108 -12 -167.5 -59t-151.5 -195z" />
<glyph unicode="&#xa4;" d="M-54 1406l231 -230q-110 -158 -110 -322q0 -173 110 -325l-227 -228l126 -127l228 226q166 -109 331 -109q173 0 329 111l229 -228l126 127l-230 230q109 157 109 322q0 162 -111 326l227 226l-127 128l-229 -226q-158 108 -324 108q-170 0 -330 -111l-230 230zM279 852 q0 149 103 252.5t250 103.5q149 0 251 -105q103 -103 103 -256q0 -144 -103.5 -247t-249.5 -103q-147 0 -250.5 103.5t-103.5 251.5z" />
<glyph unicode="&#xa5;" d="M40 1544l279 -508h-240v-164h330l93 -169h-423v-164h443v-539h217v539h445v164h-425l94 169h331v164h-241l280 508h-253l-340 -617l-337 617h-253z" />
<glyph unicode="&#xa6;" horiz-adv-x="1158" d="M463 355v-740h232v740h-232zM463 758h232v786h-232v-786z" />
<glyph unicode="&#xa7;" d="M167 20q9 -162 63.5 -254t160.5 -145q100 -52 222 -52q188 0 312 119t124 301q0 102 -38.5 171.5t-131.5 132.5q117 72 167 154.5t50 202.5q0 157 -81 244t-301 166l-102 36q-163 58 -163 184q0 93 61.5 151.5t157.5 58.5q198 0 215 -254h214q0 207 -121 338.5 t-309 131.5q-182 0 -311.5 -121.5t-129.5 -290.5q0 -192 180 -300q-219 -97 -219 -349q0 -153 75 -236.5t288 -166.5q176 -67 225 -113q48 -44 48 -137q0 -99 -54.5 -154t-151.5 -55q-203 0 -231 237h-219zM407 649q0 91 69 157q67 67 165 67q97 0 165.5 -66t68.5 -161 q0 -94 -68.5 -160t-164.5 -66q-98 0 -167 66q-68 68 -68 163z" />
<glyph unicode="&#xa8;" horiz-adv-x="1158" d="M227 1284q0 -58 41 -102q42 -42 102 -42q57 0 101 41q42 42 42 102q0 59 -42 100.5t-101 41.5t-101 -41.5t-42 -99.5zM645 1284q0 -60 42 -102t101 -42q57 0 101 41q42 42 42 102q0 59 -41.5 100.5t-101.5 41.5q-58 0 -100.5 -41.5t-42.5 -99.5z" />
<glyph unicode="&#xa9;" horiz-adv-x="1756" d="M77 776q0 -165 63.5 -314.5t171 -257.5t256 -171.5t311.5 -63.5t311.5 63.5t255.5 171t170 256.5t63 314q0 234 -130.5 436.5t-343.5 295.5q-149 70 -335 70q-108 0 -207.5 -27.5t-176.5 -72t-143 -105.5t-112 -124.5t-78 -131.5q-76 -152 -76 -339zM206 775 q0 137 53.5 263.5t143 218.5t213 147t257.5 55q209 0 363.5 -102.5t235.5 -266.5q77 -165 77 -316q0 -140 -53 -268t-143 -220t-214 -146.5t-260 -54.5q-137 0 -262 55t-215 147.5t-143 220t-53 267.5zM415 769q0 -130 66 -240t180.5 -173.5t250.5 -63.5q142 0 274 72v204 l-25 -20q-125 -98 -247 -98q-135 0 -228.5 92t-93.5 227q0 136 93 230.5t228 94.5q126 0 248 -95l25 -20v202l-8 4q-124 67 -256 67q-138 0 -255 -64.5t-184.5 -175.5t-67.5 -243z" />
<glyph unicode="&#xaa;" horiz-adv-x="838" d="M94 1222q0 -135 83 -224t209 -89q95 0 181 74v-57h148v589h-148v-63q-79 78 -185 78q-124 0 -206 -88t-82 -220zM244 1222q0 79 46 128q46 52 118 52q74 0 121 -52t47 -131q0 -80 -47 -133q-47 -50 -122 -50q-72 0 -117.5 52t-45.5 134z" />
<glyph unicode="&#xab;" horiz-adv-x="1179" d="M93 494l385 -493l150 111l-300 383l299 399l-149 110zM521 494l385 -493l150 111l-300 383l299 399l-149 110z" />
<glyph unicode="&#xac;" horiz-adv-x="1158" d="M77 402h772v-402h232v618h-1004v-216z" />
<glyph unicode="&#xad;" horiz-adv-x="446" d="M0 397h446v196h-446v-196z" />
<glyph unicode="&#xae;" horiz-adv-x="1756" d="M77 776q0 -165 63.5 -314.5t171 -257.5t256 -171.5t311.5 -63.5t311.5 63.5t255.5 171t170 256.5t63 314q0 234 -130.5 436.5t-343.5 295.5q-149 70 -335 70q-108 0 -207.5 -27.5t-176.5 -72t-143 -105.5t-112 -124.5t-78 -131.5q-76 -152 -76 -339zM206 775 q0 137 53.5 263.5t143 218.5t213 147t257.5 55q209 0 363.5 -102.5t235.5 -266.5q77 -165 77 -316q0 -140 -53 -268t-143 -220t-214 -146.5t-260 -54.5q-137 0 -262 55t-215 147.5t-143 220t-53 267.5zM590 309h177v367l275 -367h216l-301 387l12 4q82 24 135 97t53 160 q0 129 -99 209q-88 69 -283 69h-185v-926zM766 824v253h36q184 0 184 -122q0 -131 -190 -131h-30z" />
<glyph unicode="&#xaf;" horiz-adv-x="1158" d="M229 1163h701v180h-701v-180z" />
<glyph unicode="&#xb0;" horiz-adv-x="1313" d="M348 1258q0 -127 90.5 -217.5t218.5 -90.5t218.5 90.5t90.5 218.5q0 127 -90 217.5t-215 90.5q-132 0 -222.5 -89t-90.5 -220zM495 1257q0 66 47.5 111t116.5 45q67 0 113.5 -45.5t46.5 -110.5q0 -70 -47 -119t-115 -49q-66 0 -114 49.5t-48 118.5z" />
<glyph unicode="&#xb1;" d="M99 0h1065v185h-1065v-185zM99 710h440v-401h185v401h440v186h-440v432h-185v-432h-440v-186z" />
<glyph unicode="&#xb2;" horiz-adv-x="896" d="M77 618h657v145h-341l135 154q59 66 103 123q34 45 51.5 72.5t33.5 73t16 91.5q0 121 -90 202q-88 82 -221 82q-274 0 -310 -304h157q20 164 157 164q65 0 109 -41t44 -102q0 -43 -35 -99q-33 -53 -128 -166z" />
<glyph unicode="&#xb3;" horiz-adv-x="896" d="M102 880q29 -278 304 -278q135 0 223.5 80.5t88.5 206.5q0 149 -110 217q97 70 97 194q0 114 -80 187t-208 73q-129 0 -198.5 -63t-92.5 -201h157q23 123 131 123q61 0 99 -34.5t38 -89.5q0 -71 -39.5 -96.5t-138.5 -25.5v-132q102 0 146 -34t44 -112q0 -67 -42 -109.5 t-107 -42.5q-136 0 -159 137h-153z" />
<glyph unicode="&#xb4;" horiz-adv-x="1158" d="M475 1200l123 -76l364 330l-212 110z" />
<glyph unicode="&#xb6;" d="M37 1152q0 -167 98 -274q98 -105 256 -103h26v-995h214v1548h172v-1548h213v1548h61l128 216h-716q-452 0 -452 -392z" />
<glyph unicode="&#xb7;" horiz-adv-x="632" d="M177 773q0 -60 40 -100t99 -40q58 0 98.5 40.5t40.5 98.5q0 57 -41 98t-98 41t-98 -41t-41 -97z" />
<glyph unicode="&#xb8;" horiz-adv-x="1158" d="M402 -432l146 -73l239 306l-186 76z" />
<glyph unicode="&#xb9;" horiz-adv-x="896" d="M225 1401h169v-783h157v926h-238z" />
<glyph unicode="&#xba;" horiz-adv-x="840" d="M94 1225q0 -135 92.5 -225.5t230.5 -90.5q139 0 234 89.5t95 221.5q0 131 -94.5 220.5t-232.5 89.5q-135 0 -230 -89t-95 -216zM244 1222q0 82 49 131t128 49t127 -50t48 -133q0 -84 -48 -133.5t-129 -49.5t-128 50.5t-47 135.5z" />
<glyph unicode="&#xbb;" horiz-adv-x="1179" d="M124 112l149 -111l386 493l-385 510l-150 -110l300 -399zM552 112l150 -111l385 493l-385 510l-149 -110l299 -399z" />
<glyph unicode="&#xbc;" horiz-adv-x="1981" d="M179 1401h169v-783h157v926h-238zM494 41l110 -66l884 1534l-109 62zM1191 130h470v-130h159v130h99v139h-99v741zM1467 269l194 273v-273h-194z" />
<glyph unicode="&#xbd;" horiz-adv-x="1981" d="M179 1401h169v-783h157v926h-238zM494 41l110 -66l884 1534l-109 62zM1210 0h657v145h-342l136 155q61 70 102 123q35 45 52.5 72t33.5 72.5t16 92.5q0 120 -90 201q-88 82 -221 82q-274 0 -310 -304h157q19 162 157 162q65 0 109 -41t44 -100q0 -45 -34 -97 q-27 -45 -130 -167z" />
<glyph unicode="&#xbe;" horiz-adv-x="1981" d="M55 880q29 -278 304 -278q135 0 223.5 80.5t88.5 206.5q0 149 -110 217q97 70 97 194q0 114 -80 187t-208 73q-129 0 -198.5 -63t-92.5 -201h157q22 123 131 123q61 0 99 -34.5t38 -89.5q0 -71 -39.5 -96.5t-138.5 -25.5v-132q102 0 146 -34t44 -112q0 -67 -42 -109.5 t-107 -42.5q-136 0 -159 137h-153zM493 41l110 -66l884 1534l-109 62zM1191 130h469v-130h159v130h99v139h-99v741zM1466 269l194 273v-273h-194z" />
<glyph unicode="&#xbf;" horiz-adv-x="1003" d="M124 -5q0 -159 109 -265t273 -106q161 0 268 105t107 263q0 23 -5 81h-233q12 -55 12 -84q0 -69 -41 -109.5t-110 -40.5t-111 40.5t-42 109.5q0 68 39 101q42 34 187 86q148 54 209.5 124.5t61.5 186.5q0 145 -98 246t-240 101q-164 0 -270 -121q-80 -95 -80 -245h226 q9 154 119 154q50 0 84 -34t34 -83q0 -87 -130 -126q-198 -60 -283.5 -144t-85.5 -240zM363 1079q0 -58 41 -99t98 -41q58 0 98.5 40.5t40.5 97.5q0 59 -41 100t-98 41t-98 -41t-41 -98z" />
<glyph unicode="&#xc0;" horiz-adv-x="1517" d="M8 0h251l172 375h661l162 -375h255l-737 1641zM407 1959l407 -276l111 93l-320 322zM528 594l240 525l229 -525h-469z" />
<glyph unicode="&#xc1;" horiz-adv-x="1517" d="M8 0h251l172 375h661l162 -375h255l-737 1641zM528 594l240 525l229 -525h-469zM607 1776l111 -93l408 276l-198 139z" />
<glyph unicode="&#xc2;" horiz-adv-x="1517" d="M8 0h251l172 375h661l162 -375h255l-737 1641zM421 1802l152 -119l199 190l202 -190l154 119l-356 321zM528 594l240 525l229 -525h-469z" />
<glyph unicode="&#xc3;" horiz-adv-x="1517" d="M8 0h251l172 375h661l162 -375h255l-737 1641zM361 1810l131 -111q56 104 111 104q45 0 136 -46q129 -56 183 -56q164 0 260 192l-127 106q-67 -108 -124 -108q-30 0 -134 53q-103 52 -181 52q-69 0 -119 -32q-53 -35 -107 -113zM528 594l240 525l229 -525h-469z" />
<glyph unicode="&#xc4;" horiz-adv-x="1517" d="M8 0h251l172 375h661l162 -375h255l-737 1641zM406 1844q0 -59 41 -103q42 -42 102 -42q59 0 100.5 42t41.5 101q0 60 -41.5 102t-101.5 42q-58 0 -100 -42t-42 -100zM528 594l240 525l229 -525h-469zM855 1844q0 -59 41 -103q42 -42 102 -42q59 0 101 42t42 101 q0 60 -42 102t-101 42t-101 -42t-42 -100z" />
<glyph unicode="&#xc5;" horiz-adv-x="1517" d="M8 0h251l172 375h661l162 -375h255l-737 1641zM528 594l240 525l229 -525h-469zM556 1906q0 -93 63.5 -157t154.5 -64q90 0 153.5 64t63.5 154t-63.5 154t-154.5 64q-89 0 -153 -63.5t-64 -151.5zM675 1904q0 40 29 69t70 29q42 0 70.5 -28.5t28.5 -70.5t-28.5 -70.5 t-70.5 -28.5t-70.5 28.5t-28.5 71.5z" />
<glyph unicode="&#xc6;" horiz-adv-x="2145" d="M23 0h255l169 369h656l162 -369h856l-94 219h-617l-220 513h599l-98 219h-598l-163 374h615l-97 219h-683zM551 588l238 506l221 -506h-459z" />
<glyph unicode="&#xc7;" horiz-adv-x="1435" d="M108 765q0 -329 233 -562q234 -231 565 -231q220 0 420 113v281q-115 -97 -208 -136q-84 -40 -209 -40q-156 0 -286 76t-205 209t-75 292q0 162 74.5 296.5t204.5 212.5t286 78q216 0 418 -169v276q-194 113 -402 113q-148 0 -279.5 -46t-228 -125.5t-167 -183t-106 -220 t-35.5 -234.5zM602 -442l146 -77l262 308l-198 88z" />
<glyph unicode="&#xc8;" horiz-adv-x="1158" d="M185 0h852v219h-619v516h601v219h-601v371h619v219h-852v-1544zM307 1959l407 -276l111 93l-320 322z" />
<glyph unicode="&#xc9;" horiz-adv-x="1158" d="M185 0h852v219h-619v516h601v219h-601v371h619v219h-852v-1544zM443 1776l111 -93l408 276l-198 139z" />
<glyph unicode="&#xca;" horiz-adv-x="1158" d="M185 0h852v219h-619v516h601v219h-601v371h619v219h-852v-1544zM260 1802l152 -119l199 190l202 -190l154 119l-356 321z" />
<glyph unicode="&#xcb;" horiz-adv-x="1158" d="M185 0h852v219h-619v516h601v219h-601v371h619v219h-852v-1544zM251 1844q0 -59 41 -103q42 -42 102 -42q59 0 100.5 42t41.5 101q0 60 -41.5 102t-101.5 42q-58 0 -100 -42t-42 -100zM700 1844q0 -59 41 -103q42 -42 102 -42q59 0 101 42t42 101q0 60 -42 102t-101 42 t-101 -42t-42 -100z" />
<glyph unicode="&#xcc;" horiz-adv-x="604" d="M-72 1959l383 -276l111 93l-305 322zM185 0h233v1544h-233v-1544z" />
<glyph unicode="&#xcd;" horiz-adv-x="604" d="M182 1776l111 -93l384 276l-190 139zM185 0h233v1544h-233v-1544z" />
<glyph unicode="&#xce;" horiz-adv-x="604" d="M-51 1802l152 -119l199 190l202 -190l154 119l-356 321zM185 0h233v1544h-233v-1544z" />
<glyph unicode="&#xcf;" horiz-adv-x="604" d="M-29 1844q0 -60 41 -102.5t101 -42.5q59 0 101 42t42 101q0 60 -42 102t-101 42t-101 -42q-41 -44 -41 -100zM185 0h233v1544h-233v-1544zM348 1844q0 -61 42 -103t101 -42t101 42t42 101q0 60 -42 102t-101 42q-58 0 -100.5 -42t-42.5 -100z" />
<glyph unicode="&#xd0;" horiz-adv-x="1487" d="M46 703h139v-703h320q237 0 363 43q138 44 262 153q249 220 249 576q0 355 -239 573q-119 108 -263 153q-134 46 -368 46h-324v-641h-139v-200zM418 219v484h332v200h-332v422h105q295 0 458 -148t163 -406q0 -252 -172 -409q-84 -76 -188.5 -109.5t-260.5 -33.5h-105z " />
<glyph unicode="&#xd1;" horiz-adv-x="1729" d="M185 0h233v1081l1126 -1175v1638h-233v-1073l-1126 1178v-1649zM449 1810l131 -111q56 104 111 104q45 0 136 -46q129 -56 183 -56q164 0 260 192l-127 106q-67 -108 -124 -108q-30 0 -134 53q-103 52 -181 52q-69 0 -119 -32q-53 -35 -107 -113z" />
<glyph unicode="&#xd2;" horiz-adv-x="1830" d="M108 779q0 -121 31.5 -231.5t87 -198t131.5 -159.5t164.5 -119.5t186.5 -73t198 -25.5q166 0 317 62.5t260 169.5t173.5 254.5t64.5 311.5q0 162 -64 311t-172 256.5t-256.5 171.5t-310.5 64q-164 0 -314 -63.5t-259 -170t-173.5 -253.5t-64.5 -307zM343 776 q0 160 76 293t207.5 209t289.5 76q159 0 290 -76.5t206 -210t75 -295.5q0 -120 -45 -228t-121.5 -185.5t-184 -123t-226.5 -45.5q-149 0 -278.5 74.5t-209 210t-79.5 301.5zM581 1959l407 -276l111 93l-320 322z" />
<glyph unicode="&#xd3;" horiz-adv-x="1830" d="M108 779q0 -121 31.5 -231.5t87 -198t131.5 -159.5t164.5 -119.5t186.5 -73t198 -25.5q166 0 317 62.5t260 169.5t173.5 254.5t64.5 311.5q0 162 -64 311t-172 256.5t-256.5 171.5t-310.5 64q-164 0 -314 -63.5t-259 -170t-173.5 -253.5t-64.5 -307zM343 776 q0 160 76 293t207.5 209t289.5 76q159 0 290 -76.5t206 -210t75 -295.5q0 -120 -45 -228t-121.5 -185.5t-184 -123t-226.5 -45.5q-149 0 -278.5 74.5t-209 210t-79.5 301.5zM751 1776l111 -93l408 276l-198 139z" />
<glyph unicode="&#xd4;" horiz-adv-x="1830" d="M108 779q0 -121 31.5 -231.5t87 -198t131.5 -159.5t164.5 -119.5t186.5 -73t198 -25.5q166 0 317 62.5t260 169.5t173.5 254.5t64.5 311.5q0 162 -64 311t-172 256.5t-256.5 171.5t-310.5 64q-164 0 -314 -63.5t-259 -170t-173.5 -253.5t-64.5 -307zM343 776 q0 160 76 293t207.5 209t289.5 76q159 0 290 -76.5t206 -210t75 -295.5q0 -120 -45 -228t-121.5 -185.5t-184 -123t-226.5 -45.5q-149 0 -278.5 74.5t-209 210t-79.5 301.5zM569 1802l152 -119l199 190l202 -190l154 119l-356 321z" />
<glyph unicode="&#xd5;" horiz-adv-x="1830" d="M108 779q0 -121 31.5 -231.5t87 -198t131.5 -159.5t164.5 -119.5t186.5 -73t198 -25.5q166 0 317 62.5t260 169.5t173.5 254.5t64.5 311.5q0 162 -64 311t-172 256.5t-256.5 171.5t-310.5 64q-164 0 -314 -63.5t-259 -170t-173.5 -253.5t-64.5 -307zM343 776 q0 160 76 293t207.5 209t289.5 76q159 0 290 -76.5t206 -210t75 -295.5q0 -120 -45 -228t-121.5 -185.5t-184 -123t-226.5 -45.5q-149 0 -278.5 74.5t-209 210t-79.5 301.5zM480 1810l131 -111q56 104 111 104q45 0 136 -46q129 -56 183 -56q164 0 260 192l-127 106 q-68 -108 -124 -108q-30 0 -134 53q-103 52 -181 52q-69 0 -119 -32q-53 -35 -107 -113z" />
<glyph unicode="&#xd6;" horiz-adv-x="1830" d="M108 779q0 -121 31.5 -231.5t87 -198t131.5 -159.5t164.5 -119.5t186.5 -73t198 -25.5q166 0 317 62.5t260 169.5t173.5 254.5t64.5 311.5q0 162 -64 311t-172 256.5t-256.5 171.5t-310.5 64q-164 0 -314 -63.5t-259 -170t-173.5 -253.5t-64.5 -307zM343 776 q0 160 76 293t207.5 209t289.5 76q159 0 290 -76.5t206 -210t75 -295.5q0 -120 -45 -228t-121.5 -185.5t-184 -123t-226.5 -45.5q-149 0 -278.5 74.5t-209 210t-79.5 301.5zM550 1844q0 -59 41 -103q42 -42 102 -42q59 0 100.5 42t41.5 101q0 60 -41.5 102t-101.5 42 q-58 0 -100 -42t-42 -100zM999 1844q0 -59 41 -103q42 -42 102 -42q59 0 101 42t42 101q0 60 -42 102t-101 42t-101 -42t-42 -100z" />
<glyph unicode="&#xd7;" d="M175 473l127 -126l329 329l330 -329l127 126l-330 330l330 330l-127 127l-330 -330l-329 330l-127 -127l330 -330z" />
<glyph unicode="&#xd8;" horiz-adv-x="1828" d="M108 766q0 -269 162 -485l-161 -166l128 -131l166 165q234 -177 511 -177q131 0 253.5 40.5t222 114.5t174 172t115.5 219t41 250q0 283 -183 511l165 169l-134 133l-167 -170q-220 162 -481 162q-162 0 -310.5 -62t-259 -168t-176.5 -257t-66 -320zM343 763 q0 252 165 421.5t411 169.5q174 0 319 -97l-798 -816q-97 157 -97 322zM569 307l803 819q113 -164 113 -355q0 -159 -76 -293t-206.5 -211t-285.5 -77q-179 0 -348 117z" />
<glyph unicode="&#xd9;" horiz-adv-x="1513" d="M185 550q0 -161 73 -293t204 -208.5t294 -76.5t294.5 76.5t204.5 208.5t73 293v994h-233v-930q0 -424 -339 -424q-176 0 -273 133q-65 92 -65 291v930h-233v-994zM419 1959l407 -276l111 93l-320 322z" />
<glyph unicode="&#xda;" horiz-adv-x="1513" d="M185 550q0 -161 73 -293t204 -208.5t294 -76.5t294.5 76.5t204.5 208.5t73 293v994h-233v-930q0 -424 -339 -424q-176 0 -273 133q-65 92 -65 291v930h-233v-994zM591 1776l111 -93l408 276l-198 139z" />
<glyph unicode="&#xdb;" horiz-adv-x="1513" d="M185 550q0 -161 73 -293t204 -208.5t294 -76.5t294.5 76.5t204.5 208.5t73 293v994h-233v-930q0 -424 -339 -424q-176 0 -273 133q-65 92 -65 291v930h-233v-994zM403 1802l152 -119l199 190l202 -190l154 119l-356 321z" />
<glyph unicode="&#xdc;" horiz-adv-x="1513" d="M185 550q0 -161 73 -293t204 -208.5t294 -76.5t294.5 76.5t204.5 208.5t73 293v994h-233v-930q0 -424 -339 -424q-176 0 -273 133q-65 92 -65 291v930h-233v-994zM387 1844q0 -59 41 -103q42 -42 102 -42q59 0 100.5 42t41.5 101q0 60 -41.5 102t-101.5 42 q-58 0 -100 -42t-42 -100zM836 1844q0 -59 41 -103q42 -42 102 -42q59 0 101 42t42 101q0 60 -42 102t-101 42t-101 -42t-42 -100z" />
<glyph unicode="&#xdd;" horiz-adv-x="1229" d="M-7 1544l504 -877v-667h233v667l506 877h-268l-354 -617l-353 617h-268zM500 1776l111 -93l408 276l-198 139z" />
<glyph unicode="&#xde;" horiz-adv-x="1106" d="M185 0h233v411h108q241 0 383 124t142 335q0 199 -133 329q-78 75 -176 101q-88 28 -293 28h-31v216h-233v-1544zM418 627v486h77q331 0 331 -239q0 -247 -321 -247h-87z" />
<glyph unicode="&#xdf;" horiz-adv-x="1274" d="M62 774h80v-774h226v1110l4 123q0 145 55.5 212.5t176.5 67.5q104 0 168.5 -61.5t64.5 -157.5q0 -116 -69.5 -178t-202.5 -62v-207q190 -19 286.5 -93t96.5 -231q0 -151 -106 -245q-103 -94 -277 -94v-216q88 0 174.5 21t166 65.5t140 107.5t96.5 155t36 200 q0 150 -77 275t-206 182q165 112 165 310q0 188 -130 309q-129 123 -327 123q-222 0 -341.5 -128t-119.5 -367v-247h-80v-200z" />
<glyph unicode="&#xe0;" horiz-adv-x="1228" d="M96 490q0 -223 131 -372q132 -146 334 -146q160 0 299 130v-102h226v974h-226v-113q-135 140 -305 140q-197 0 -328 -146t-131 -365zM293 1454l363 -330l124 76l-276 364zM326 490q0 131 77.5 219.5t193.5 88.5q123 0 200 -87.5t77 -225.5t-77 -225t-202 -87 q-117 0 -193 88.5t-76 228.5z" />
<glyph unicode="&#xe1;" horiz-adv-x="1228" d="M96 490q0 -223 131 -372q132 -146 334 -146q160 0 299 130v-102h226v974h-226v-113q-135 140 -305 140q-197 0 -328 -146t-131 -365zM326 490q0 131 77.5 219.5t193.5 88.5q123 0 200 -87.5t77 -225.5t-77 -225t-202 -87q-117 0 -193 88.5t-76 228.5zM472 1200l123 -76 l364 330l-212 110z" />
<glyph unicode="&#xe2;" horiz-adv-x="1228" d="M96 490q0 -223 131 -372q132 -146 334 -146q160 0 299 130v-102h226v974h-226v-113q-135 140 -305 140q-197 0 -328 -146t-131 -365zM276 1243l152 -119l199 190l202 -190l154 119l-356 321zM326 490q0 131 77.5 219.5t193.5 88.5q123 0 200 -87.5t77 -225.5t-77 -225 t-202 -87q-117 0 -193 88.5t-76 228.5z" />
<glyph unicode="&#xe3;" horiz-adv-x="1228" d="M96 490q0 -223 131 -372q132 -146 334 -146q160 0 299 130v-102h226v974h-226v-113q-135 140 -305 140q-197 0 -328 -146t-131 -365zM219 1251l131 -111q56 104 111 104q45 0 136 -46q129 -56 183 -56q164 0 260 192l-127 106q-67 -108 -124 -108q-30 0 -134 53 q-103 52 -181 52q-69 0 -119 -32q-53 -35 -107 -113zM326 490q0 131 77.5 219.5t193.5 88.5q123 0 200 -87.5t77 -225.5t-77 -225t-202 -87q-117 0 -193 88.5t-76 228.5z" />
<glyph unicode="&#xe4;" horiz-adv-x="1228" d="M96 490q0 -223 131 -372q132 -146 334 -146q160 0 299 130v-102h226v974h-226v-113q-135 140 -305 140q-197 0 -328 -146t-131 -365zM269 1284q0 -58 41 -102q42 -42 102 -42q57 0 101 41q42 42 42 102q0 59 -42 100.5t-101 41.5t-101 -41.5t-42 -99.5zM326 490 q0 131 77.5 219.5t193.5 88.5q123 0 200 -87.5t77 -225.5t-77 -225t-202 -87q-117 0 -193 88.5t-76 228.5zM687 1284q0 -60 42 -102t101 -42q57 0 101 41q42 42 42 102q0 59 -41.5 100.5t-101.5 41.5q-58 0 -100.5 -41.5t-42.5 -99.5z" />
<glyph unicode="&#xe5;" horiz-adv-x="1228" d="M96 490q0 -223 131 -372q132 -146 334 -146q160 0 299 130v-102h226v974h-226v-113q-135 140 -305 140q-197 0 -328 -146t-131 -365zM326 490q0 131 77.5 219.5t193.5 88.5q123 0 200 -87.5t77 -225.5t-77 -225t-202 -87q-117 0 -193 88.5t-76 228.5zM403 1345 q0 -93 63.5 -157t154.5 -64q90 0 153.5 64t63.5 154t-63.5 154t-154.5 64q-89 0 -153 -63.5t-64 -151.5zM522 1343q0 40 29 69t70 29q42 0 70.5 -28.5t28.5 -70.5t-28.5 -70.5t-70.5 -28.5t-70.5 28.5t-28.5 71.5z" />
<glyph unicode="&#xe6;" horiz-adv-x="1763" d="M96 296q0 -145 111 -235t289 -90q238 0 359 156q157 -156 353 -156q169 0 311 105q83 60 149 184l-194 108q-100 -195 -255 -195q-105 0 -176 73t-82 191h702l2 64q0 226 -128 363t-341 137q-209 0 -340 -137q-104 137 -342 137q-108 0 -282 -30v-209q132 37 260 37 q133 0 188 -53t55 -184q-131 66 -254 66q-172 0 -278.5 -91.5t-106.5 -240.5zM314 300q0 55 57 94t139 39q87 0 149 -38t62 -90q0 -59 -60 -98.5t-149 -39.5q-84 0 -141 38t-57 95zM976 619q51 179 232 179q178 0 219 -179h-451z" />
<glyph unicode="&#xe7;" horiz-adv-x="976" d="M96 483q0 -218 152 -364.5t378 -146.5q137 0 274 71v297q-80 -97 -141 -132t-143 -35q-127 0 -208.5 88t-81.5 225q0 134 84 223t211 89q81 0 141.5 -35.5t137.5 -129.5v299q-128 69 -272 69q-224 0 -378 -150t-154 -368zM329 -432l146 -73l239 306l-186 76z" />
<glyph unicode="&#xe8;" horiz-adv-x="1133" d="M96 486q0 -233 132 -373.5t350 -140.5q153 0 262 67q111 68 198 216l-190 106q-70 -109 -124.5 -148.5t-137.5 -39.5q-108 0 -177 70.5t-78 190.5h699v53q0 240 -124 377t-340 137q-213 0 -342 -141q-128 -143 -128 -374zM246 1454l363 -330l124 76l-276 364zM346 618 q22 83 83 132q60 48 142 48q181 0 227 -180h-452z" />
<glyph unicode="&#xe9;" horiz-adv-x="1133" d="M96 486q0 -233 132 -373.5t350 -140.5q153 0 262 67q111 68 198 216l-190 106q-70 -109 -124.5 -148.5t-137.5 -39.5q-108 0 -177 70.5t-78 190.5h699v53q0 240 -124 377t-340 137q-213 0 -342 -141q-128 -143 -128 -374zM346 618q22 83 83 132q60 48 142 48 q181 0 227 -180h-452zM417 1200l123 -76l364 330l-212 110z" />
<glyph unicode="&#xea;" horiz-adv-x="1133" d="M96 486q0 -233 132 -373.5t350 -140.5q153 0 262 67q111 68 198 216l-190 106q-70 -109 -124.5 -148.5t-137.5 -39.5q-108 0 -177 70.5t-78 190.5h699v53q0 240 -124 377t-340 137q-213 0 -342 -141q-128 -143 -128 -374zM222 1243l152 -119l199 190l202 -190l154 119 l-356 321zM346 618q22 83 83 132q60 48 142 48q181 0 227 -180h-452z" />
<glyph unicode="&#xeb;" horiz-adv-x="1133" d="M96 486q0 -233 132 -373.5t350 -140.5q153 0 262 67q111 68 198 216l-190 106q-70 -109 -124.5 -148.5t-137.5 -39.5q-108 0 -177 70.5t-78 190.5h699v53q0 240 -124 377t-340 137q-213 0 -342 -141q-128 -143 -128 -374zM223 1284q0 -58 41 -102q42 -42 102 -42 q57 0 101 41q42 42 42 102q0 59 -42 100.5t-101 41.5t-101 -41.5t-42 -99.5zM346 618q22 83 83 132q60 48 142 48q181 0 227 -180h-452zM641 1284q0 -60 42 -102t101 -42q57 0 101 41q42 42 42 102q0 59 -41.5 100.5t-101.5 41.5q-58 0 -100.5 -41.5t-42.5 -99.5z" />
<glyph unicode="&#xec;" horiz-adv-x="510" d="M-96 1454l331 -330l124 76l-252 364zM142 0h225v974h-225v-974z" />
<glyph unicode="&#xed;" horiz-adv-x="510" d="M142 0h225v974h-225v-974zM151 1200l124 -76l332 330l-203 110z" />
<glyph unicode="&#xee;" horiz-adv-x="510" d="M-82 1243l151 -119l184 190l186 -190l154 119l-340 321zM142 0h225v974h-225v-974z" />
<glyph unicode="&#xef;" horiz-adv-x="510" d="M-68 1284q0 -59 41 -101.5t101 -42.5q57 0 101 41q42 42 42 102q0 59 -42 100.5t-101 41.5t-100 -42q-42 -41 -42 -99zM142 0h225v974h-225v-974zM294 1284q0 -58 41 -102q42 -42 102 -42q57 0 101 41q42 42 42 102q0 59 -42 100.5t-101 41.5t-101 -41.5t-42 -99.5z" />
<glyph unicode="&#xf0;" horiz-adv-x="1231" d="M96 483q0 -142 68.5 -259.5t188.5 -184.5t266 -67q224 0 370 149q146 152 146 383q0 228 -122 484q-122 248 -338 448l187 100l-79 130l-236 -124l-45 27q-147 90 -283 137l-92 -140q42 -15 54 -21l81 -42l72 -36q9 -5 36 -21l-190 -100l73 -131l240 129 q159 -148 282 -367q-73 22 -157 22q-144 0 -264 -68t-189 -186.5t-69 -261.5zM326 489q0 136 80 222t209 86q131 0 210.5 -85.5t79.5 -226.5q0 -142 -79 -227t-211 -85t-210.5 86t-78.5 230z" />
<glyph unicode="&#xf1;" horiz-adv-x="1123" d="M137 1251l131 -111q56 104 111 104q45 0 136 -46q129 -56 183 -56q164 0 260 192l-127 106q-67 -108 -124 -108q-30 0 -134 53q-103 52 -181 52q-69 0 -119 -32q-53 -35 -107 -113zM142 0h226v470q0 181 46.5 255t158.5 74q103 0 142.5 -55.5t39.5 -199.5v-544h226v597 q0 404 -347 404q-148 0 -266 -117v90h-226v-974z" />
<glyph unicode="&#xf2;" horiz-adv-x="1231" d="M96 494q0 -147 67.5 -267t185.5 -187.5t262 -67.5q146 0 266 67t189 185t69 262q0 142 -69 260.5t-188.5 186.5t-262.5 68q-142 0 -261.5 -67.5t-188.5 -184.5t-69 -255zM295 1454l363 -330l124 76l-276 364zM326 490q0 136 80 222t209 86q131 0 210.5 -85.5t79.5 -227.5 t-79 -227t-211 -85t-210.5 85.5t-78.5 231.5z" />
<glyph unicode="&#xf3;" horiz-adv-x="1231" d="M96 494q0 -147 67.5 -267t185.5 -187.5t262 -67.5q146 0 266 67t189 185t69 262q0 142 -69 260.5t-188.5 186.5t-262.5 68q-142 0 -261.5 -67.5t-188.5 -184.5t-69 -255zM326 490q0 136 80 222t209 86q131 0 210.5 -85.5t79.5 -227.5t-79 -227t-211 -85t-210.5 85.5 t-78.5 231.5zM466 1200l123 -76l364 330l-212 110z" />
<glyph unicode="&#xf4;" horiz-adv-x="1231" d="M96 494q0 -147 67.5 -267t185.5 -187.5t262 -67.5q146 0 266 67t189 185t69 262q0 142 -69 260.5t-188.5 186.5t-262.5 68q-142 0 -261.5 -67.5t-188.5 -184.5t-69 -255zM262 1243l152 -119l199 190l202 -190l154 119l-356 321zM326 490q0 136 80 222t209 86 q131 0 210.5 -85.5t79.5 -227.5t-79 -227t-211 -85t-210.5 85.5t-78.5 231.5z" />
<glyph unicode="&#xf5;" horiz-adv-x="1231" d="M96 494q0 -147 67.5 -267t185.5 -187.5t262 -67.5q146 0 266 67t189 185t69 262q0 142 -69 260.5t-188.5 186.5t-262.5 68q-142 0 -261.5 -67.5t-188.5 -184.5t-69 -255zM228 1251l131 -111q56 104 111 104q45 0 136 -46q129 -56 183 -56q164 0 260 192l-127 106 q-68 -108 -124 -108q-30 0 -134 53q-103 52 -181 52q-69 0 -119 -32q-53 -35 -107 -113zM326 490q0 136 80 222t209 86q131 0 210.5 -85.5t79.5 -227.5t-79 -227t-211 -85t-210.5 85.5t-78.5 231.5z" />
<glyph unicode="&#xf6;" horiz-adv-x="1231" d="M96 494q0 -147 67.5 -267t185.5 -187.5t262 -67.5q146 0 266 67t189 185t69 262q0 142 -69 260.5t-188.5 186.5t-262.5 68q-142 0 -261.5 -67.5t-188.5 -184.5t-69 -255zM263 1284q0 -58 41 -102q42 -42 102 -42q57 0 101 41q42 42 42 102q0 59 -42 100.5t-101 41.5 t-101 -41.5t-42 -99.5zM326 490q0 136 80 222t209 86q131 0 210.5 -85.5t79.5 -227.5t-79 -227t-211 -85t-210.5 85.5t-78.5 231.5zM681 1284q0 -60 42 -102t101 -42q57 0 101 41q42 42 42 102q0 59 -41.5 100.5t-101.5 41.5q-58 0 -100.5 -41.5t-42.5 -99.5z" />
<glyph unicode="&#xf7;" d="M99 710h1065v186h-1065v-186zM502 459q0 -53 38 -94q38 -38 92 -38q53 0 91 38t38 92t-38 92t-91 38q-51 0 -92 -38q-38 -38 -38 -90zM502 1151q0 -53 38 -94q38 -38 92 -38q53 0 91 38t38 92t-38 92t-91 38q-51 0 -92 -38q-38 -38 -38 -90z" />
<glyph unicode="&#xf8;" horiz-adv-x="1231" d="M46 35l103 -104l148 143q138 -102 322 -102q218 0 366 148q151 148 151 364q0 174 -109 319l150 147l-102 108l-154 -152q-143 95 -305 95q-142 0 -261.5 -67.5t-189 -185.5t-69.5 -259q0 -166 97 -308zM326 483q0 136 79.5 218t211.5 82q80 0 141 -31l-401 -414 q-31 63 -31 145zM458 227l408 423q39 -78 39 -166q0 -134 -79.5 -215.5t-209.5 -81.5q-85 0 -158 40z" />
<glyph unicode="&#xf9;" horiz-adv-x="1116" d="M142 410q0 -136 28 -202q28 -75 99 -137q114 -99 289 -99q176 0 290 99q69 61 97 137q29 87 29 202v564h-225v-559q0 -242 -191 -242t-191 242v559h-225v-564zM222 1454l363 -330l124 76l-276 364z" />
<glyph unicode="&#xfa;" horiz-adv-x="1116" d="M142 410q0 -136 28 -202q28 -75 99 -137q114 -99 289 -99q176 0 290 99q69 61 97 137q29 87 29 202v564h-225v-559q0 -242 -191 -242t-191 242v559h-225v-564zM424 1200l123 -76l364 330l-212 110z" />
<glyph unicode="&#xfb;" horiz-adv-x="1116" d="M142 410q0 -136 28 -202q28 -75 99 -137q114 -99 289 -99q176 0 290 99q69 61 97 137q29 87 29 202v564h-225v-559q0 -242 -191 -242t-191 242v559h-225v-564zM206 1243l152 -119l199 190l202 -190l154 119l-356 321z" />
<glyph unicode="&#xfc;" horiz-adv-x="1116" d="M142 410q0 -136 28 -202q28 -75 99 -137q114 -99 289 -99q176 0 290 99q69 61 97 137q29 87 29 202v564h-225v-559q0 -242 -191 -242t-191 242v559h-225v-564zM207 1284q0 -58 41 -102q42 -42 102 -42q57 0 101 41q42 42 42 102q0 59 -42 100.5t-101 41.5t-101 -41.5 t-42 -99.5zM625 1284q0 -60 42 -102t101 -42q57 0 101 41q42 42 42 102q0 59 -41.5 100.5t-101.5 41.5q-58 0 -100.5 -41.5t-42.5 -99.5z" />
<glyph unicode="&#xfd;" horiz-adv-x="1113" d="M11 974l438 -793l-380 -711h257l776 1504h-254l-278 -560l-298 560h-261zM453 1200l123 -76l364 330l-212 110z" />
<glyph unicode="&#xfe;" horiz-adv-x="1228" d="M142 -530h225v639q135 -137 306 -137q198 0 328.5 145.5t130.5 364.5q0 224 -132 371q-130 148 -331 148q-169 0 -302 -133v821h-225v-2219zM354 486q0 140 77 226t201 86q118 0 194 -88.5t76 -228.5q0 -132 -77 -220t-194 -88q-123 0 -200 87.5t-77 225.5z" />
<glyph unicode="&#xff;" horiz-adv-x="1113" d="M11 974l438 -793l-380 -711h257l776 1504h-254l-278 -560l-298 560h-261zM205 1284q0 -58 41 -102q42 -42 102 -42q57 0 101 41q42 42 42 102q0 59 -42 100.5t-101 41.5t-101 -41.5t-42 -99.5zM623 1284q0 -60 42 -102t101 -42q57 0 101 41q42 42 42 102 q0 59 -41.5 100.5t-101.5 41.5q-58 0 -100.5 -41.5t-42.5 -99.5z" />
<glyph unicode="&#x152;" horiz-adv-x="2424" d="M108 767q0 -163 64.5 -310t173 -253.5t259.5 -169t318 -62.5q162 0 288.5 55t261.5 186v-213h831v219h-598v514h581v220h-581v372h598v219h-831v-221q-136 135 -266 193q-119 58 -294 58q-144 0 -273 -45t-224.5 -123t-166 -180t-106 -220t-35.5 -239zM343 782 q0 114 45 219.5t121 182.5t180 123t217 46q115 0 220.5 -47t181.5 -125.5t121.5 -187t45.5 -226.5q0 -157 -76.5 -289.5t-209 -209.5t-289.5 -77q-153 0 -281 78.5t-202 214.5t-74 298z" />
<glyph unicode="&#x153;" horiz-adv-x="1952" d="M96 483q0 -105 41 -200t110 -163t164 -108t199 -40q244 0 402 185q61 -85 164 -136q114 -50 216 -50q295 0 466 283l-192 111q-99 -192 -258 -192q-110 0 -183.5 73t-81.5 188h711l2 58q0 235 -128 372t-346 137q-236 0 -370 -189q-144 189 -390 189q-146 0 -267 -68 t-190 -187t-69 -263zM327 490q0 141 77.5 224.5t208.5 83.5q134 0 210 -82t76 -229q0 -148 -76 -230q-78 -84 -215 -84q-130 0 -205.5 85t-75.5 232zM1161 618q49 180 230 180q188 0 227 -180h-457z" />
<glyph unicode="&#x178;" horiz-adv-x="1229" d="M-7 1544l504 -877v-667h233v667l506 877h-268l-354 -617l-353 617h-268zM249 1844q0 -59 41 -103q42 -42 102 -42q59 0 100.5 42t41.5 101q0 60 -41.5 102t-101.5 42q-58 0 -100 -42t-42 -100zM698 1844q0 -59 41 -103q42 -42 102 -42q59 0 101 42t42 101q0 60 -42 102 t-101 42t-101 -42t-42 -100z" />
<glyph unicode="&#x2c6;" horiz-adv-x="1158" d="M226 1243l152 -119l199 190l202 -190l154 119l-356 321z" />
<glyph unicode="&#x2dc;" horiz-adv-x="1158" d="M169 1251l131 -111q56 104 111 104q45 0 136 -46q129 -56 183 -56q164 0 260 192l-127 106q-67 -108 -124 -108q-30 0 -134 53q-103 52 -181 52q-69 0 -119 -32q-53 -35 -107 -113z" />
<glyph unicode="&#x2000;" horiz-adv-x="1061" />
<glyph unicode="&#x2001;" horiz-adv-x="2123" />
<glyph unicode="&#x2002;" horiz-adv-x="1061" />
<glyph unicode="&#x2003;" horiz-adv-x="2123" />
<glyph unicode="&#x2004;" horiz-adv-x="707" />
<glyph unicode="&#x2005;" horiz-adv-x="530" />
<glyph unicode="&#x2006;" horiz-adv-x="353" />
<glyph unicode="&#x2007;" horiz-adv-x="353" />
<glyph unicode="&#x2008;" horiz-adv-x="265" />
<glyph unicode="&#x2009;" horiz-adv-x="424" />
<glyph unicode="&#x200a;" horiz-adv-x="117" />
<glyph unicode="&#x2010;" horiz-adv-x="446" d="M0 397h446v196h-446v-196z" />
<glyph unicode="&#x2011;" horiz-adv-x="446" d="M0 397h446v196h-446v-196z" />
<glyph unicode="&#x2012;" horiz-adv-x="446" d="M0 397h446v196h-446v-196z" />
<glyph unicode="&#x2013;" horiz-adv-x="1313" d="M237 397h838v196h-838v-196z" />
<glyph unicode="&#x2014;" horiz-adv-x="1336" d="M0 397h1336v196h-1336v-196z" />
<glyph unicode="&#x2018;" horiz-adv-x="669" d="M116 1039l201 -78l236 588l-152 62z" />
<glyph unicode="&#x2019;" horiz-adv-x="669" d="M116 1024l152 -63l285 572l-200 78z" />
<glyph unicode="&#x201a;" horiz-adv-x="669" d="M116 -297l152 -63l285 571l-200 78z" />
<glyph unicode="&#x201c;" horiz-adv-x="1069" d="M116 1039l201 -78l236 588l-152 62zM516 1039l201 -78l236 588l-152 62z" />
<glyph unicode="&#x201d;" horiz-adv-x="1069" d="M116 1024l152 -63l285 572l-200 78zM516 1024l152 -63l285 572l-200 78z" />
<glyph unicode="&#x201e;" horiz-adv-x="1069" d="M116 -297l152 -63l285 571l-200 78zM516 -297l152 -63l285 571l-200 78z" />
<glyph unicode="&#x2022;" horiz-adv-x="1544" d="M454 787q0 -133 93 -229q95 -95 225 -95q132 0 225 94.5t93 230.5q0 133 -92.5 228.5t-220.5 95.5q-134 0 -228.5 -94.5t-94.5 -230.5z" />
<glyph unicode="&#x2026;" horiz-adv-x="1934" d="M183 112q0 -60 40 -100t99 -40q58 0 98.5 40.5t40.5 98.5q0 57 -41 98t-98 41t-98 -41t-41 -97zM827 112q0 -59 40.5 -99.5t99.5 -40.5q58 0 98.5 40.5t40.5 98.5q0 57 -41 98t-99 41q-57 0 -98 -41t-41 -97zM1472 112q0 -59 40.5 -99.5t99.5 -40.5q57 0 97.5 40.5 t40.5 98.5q0 57 -41 98t-98 41t-98 -41t-41 -97z" />
<glyph unicode="&#x202f;" horiz-adv-x="424" />
<glyph unicode="&#x2039;" horiz-adv-x="751" d="M93 494l385 -493l150 111l-300 383l299 399l-149 110z" />
<glyph unicode="&#x203a;" horiz-adv-x="751" d="M124 112l149 -111l385 493l-384 510l-150 -110l300 -399z" />
<glyph unicode="&#x205f;" horiz-adv-x="530" />
<glyph unicode="&#x20ac;" d="M235 861h673v163h-390q40 86 111 160q164 170 399 170v220q-140 0 -264.5 -44t-214 -116t-158.5 -165.5t-107 -192t-49 -195.5zM236 666q16 -134 81 -258.5t165.5 -221.5t243 -155.5t302.5 -58.5v218q-235 0 -399 167q-67 67 -105 146h384v163h-672z" />
<glyph unicode="&#x2122;" horiz-adv-x="1627" d="M-2 1393h194v-729h160v729h194v151h-548v-151zM600 664h163l83 479l236 -495l236 495l82 -479h164l-189 960l-293 -650l-293 650z" />
<glyph unicode="&#x25fc;" horiz-adv-x="975" d="M0 0v975h975v-975h-975z" />
<glyph unicode="&#xfb01;" horiz-adv-x="1087" d="M69 764h80v-764h225v764h258v210h-258v348q0 77 50 132t122 55q73 0 123 -55.5t50 -131.5v-91h225v91q0 164 -116.5 280.5t-280.5 116.5q-165 0 -281.5 -116.5t-116.5 -280.5v-348h-80v-210zM719 0h225v974h-225v-974z" />
<glyph unicode="&#xfb02;" horiz-adv-x="1087" d="M69 764h80v-764h225v764h258v210h-258v348q0 77 50 132t122 55t122.5 -56t50.5 -131v-1322h225v1322q0 164 -116.5 280.5t-280.5 116.5t-281 -116.5t-117 -280.5v-348h-80v-210z" />
</font>
</defs>
</svg>
